<svg width="120" height="25" viewBox="0 0 120 25" fill="none" xmlns="http://www.w3.org/2000/svg">
<g clip-path="url(#clip0_1356_2201)">
<path d="M4.12924 8.91892C7.12116 3.68546 8.61714 1.06873 10.6481 0.341084C11.9174 -0.113695 13.3042 -0.113695 14.5736 0.341084C16.6045 1.06873 18.1005 3.68546 21.0924 8.91892C24.0652 14.1188 25.5515 16.7188 25.16 18.8423C24.9151 20.1697 24.2229 21.3718 23.1994 22.2463C21.5622 23.6453 18.5784 23.6453 12.6108 23.6453C6.64321 23.6453 3.65939 23.6453 2.02227 22.2463C0.998847 21.3718 0.306483 20.1697 0.0616908 18.8423C-0.329898 16.7188 1.15648 14.1188 4.12924 8.91892Z" fill="#FA5B30"/>
<path d="M16.7896 16.4829C15.3442 18.8 14.6214 19.9585 13.6621 20.3077C12.9852 20.554 12.237 20.554 11.56 20.3077C10.6007 19.9585 9.87797 18.8 8.43255 16.4829C6.92613 14.0681 6.17293 12.8607 6.32489 11.8692C6.432 11.1706 6.80964 10.5357 7.38314 10.0902C8.19687 9.45801 9.66826 9.45801 12.6111 9.45801C15.5539 9.45801 17.0253 9.45801 17.8391 10.0902C18.4126 10.5357 18.7902 11.1706 18.8973 11.8692C19.0492 12.8607 18.296 14.0681 16.7896 16.4829Z" fill="white"/>
<path d="M36.5696 20.6954C37.1015 20.6954 37.5702 20.6243 37.9762 20.482C38.3819 20.3397 38.7295 20.1413 39.0187 19.8871C39.308 19.6329 39.5389 19.3379 39.7113 19.002H39.7955V20.4924H42.6223V13.2432C42.6223 12.6041 42.4987 12.0548 42.2514 11.5954C42.0041 11.1359 41.6672 10.7592 41.2404 10.4653C40.8136 10.1714 40.3261 9.95449 39.7779 9.81455C39.2297 9.67459 38.6571 9.60462 38.0601 9.60462C37.2018 9.60462 36.4471 9.73408 35.7964 9.99298C35.1456 10.2519 34.615 10.6204 34.2045 11.0986C33.7941 11.5767 33.5188 12.1423 33.3789 12.7954L36.1358 13.0193C36.2384 12.6648 36.4483 12.3697 36.7655 12.1342C37.0828 11.8986 37.5095 11.7808 38.0461 11.7808C38.5545 11.7808 38.9476 11.9021 39.225 12.1446C39.5027 12.3872 39.6414 12.7301 39.6414 13.1733V13.2152C39.6414 13.4438 39.5551 13.6164 39.3825 13.733C39.21 13.8497 38.9324 13.9371 38.5499 13.9954C38.1673 14.0537 37.6636 14.1156 37.0384 14.1809C36.5066 14.2322 35.9994 14.3208 35.5164 14.4468C35.0337 14.5727 34.6033 14.7593 34.2256 15.0066C33.8477 15.2538 33.5492 15.5803 33.3298 15.9862C33.1105 16.392 33.001 16.8935 33.001 17.4906C33.001 18.1997 33.1561 18.7909 33.4664 19.2644C33.7765 19.738 34.1998 20.0948 34.7363 20.335C35.2727 20.5752 35.8839 20.6954 36.5696 20.6954ZM37.4232 18.6382C36.9661 18.6382 36.5896 18.532 36.2932 18.3198C35.997 18.1075 35.8489 17.7985 35.8489 17.3926C35.8489 17.1127 35.9212 16.8783 36.0658 16.6894C36.2104 16.5005 36.4134 16.35 36.6747 16.2381C36.9358 16.1261 37.2414 16.0445 37.5913 15.9932C37.7545 15.9698 37.9363 15.943 38.1369 15.9127C38.3375 15.8824 38.5381 15.8474 38.7387 15.8077C38.9393 15.7681 39.1202 15.7238 39.2812 15.6748C39.442 15.6258 39.5691 15.571 39.6625 15.5104V16.6509C39.6625 17.0288 39.5669 17.367 39.3756 17.6655C39.1842 17.9641 38.9208 18.2008 38.5848 18.3758C38.2491 18.5507 37.8619 18.6382 37.4232 18.6382ZM47.9164 24.523V18.7711H48.0075C48.1427 19.0696 48.3387 19.3647 48.5953 19.6563C48.8518 19.9478 49.1819 20.1892 49.5854 20.3805C49.9888 20.5717 50.4798 20.6674 51.0583 20.6674C51.8747 20.6674 52.6128 20.4564 53.2729 20.0341C53.933 19.612 54.4554 18.9892 54.8404 18.1658C55.2252 17.3425 55.4175 16.3314 55.4175 15.1325C55.4175 13.901 55.2193 12.8759 54.8229 12.0572C54.4262 11.2385 53.8967 10.6251 53.2345 10.2169C52.572 9.80872 51.8489 9.60462 51.0652 9.60462C50.4634 9.60462 49.9608 9.70608 49.5572 9.90901C49.1539 10.1119 48.8272 10.3638 48.5777 10.6647C48.3281 10.9656 48.1381 11.2607 48.0075 11.5499H47.8745V9.74456H44.9356V24.523H47.9164ZM50.1137 18.2953C49.6331 18.2953 49.225 18.1635 48.8891 17.8999C48.5533 17.6364 48.2967 17.2667 48.1194 16.7909C47.9421 16.315 47.8534 15.7576 47.8534 15.1185C47.8534 14.4794 47.9421 13.9243 48.1194 13.4532C48.2967 12.982 48.5521 12.6181 48.8855 12.3616C49.2191 12.105 49.6286 11.9767 50.1137 11.9767C50.6033 11.9767 51.0163 12.1097 51.3521 12.3756C51.6881 12.6414 51.9423 13.01 52.1149 13.4811C52.2875 13.9523 52.3738 14.4981 52.3738 15.1185C52.3738 15.7436 52.2863 16.2952 52.1113 16.7734C51.9363 17.2515 51.681 17.6247 51.3452 17.8929C51.0093 18.1612 50.5988 18.2953 50.1137 18.2953ZM58.9009 8.3591C59.344 8.3591 59.7229 8.21099 60.0378 7.91477C60.3527 7.61855 60.5101 7.26285 60.5101 6.84768C60.5101 6.43717 60.3527 6.08381 60.0378 5.7876C59.7229 5.49136 59.3417 5.34326 58.8938 5.34326C58.4554 5.34326 58.0774 5.49136 57.7602 5.7876C57.4429 6.08381 57.2845 6.43717 57.2845 6.84768C57.2845 7.26285 57.4429 7.61855 57.7602 7.91477C58.0774 8.21099 58.4577 8.3591 58.9009 8.3591ZM60.3773 20.4924V9.74456H57.3964V20.4924H60.3773ZM64.5015 20.6743C64.8047 20.6743 65.0822 20.5986 65.3342 20.4469C65.586 20.2954 65.7901 20.0924 65.9464 19.8383C66.1027 19.584 66.1809 19.3029 66.1809 18.995C66.1809 18.5379 66.0128 18.146 65.677 17.8195C65.3411 17.4929 64.9494 17.3297 64.5015 17.3297C64.0396 17.3297 63.6443 17.4929 63.3155 17.8195C62.9866 18.146 62.8221 18.5379 62.8221 18.995C62.8221 19.4568 62.9866 19.8522 63.3155 20.1811C63.6443 20.51 64.0396 20.6743 64.5015 20.6743ZM74.8883 20.4924L78.6457 9.74456H75.49L73.2648 17.4346H73.1529L70.9208 9.74456H67.772L71.5295 20.4924H74.8883ZM81.6729 8.3591C82.1161 8.3591 82.495 8.21099 82.8099 7.91477C83.1247 7.61855 83.2822 7.26285 83.2822 6.84768C83.2822 6.43717 83.1247 6.08381 82.8099 5.7876C82.495 5.49136 82.1137 5.34326 81.6658 5.34326C81.2274 5.34326 80.8495 5.49136 80.5322 5.7876C80.215 6.08381 80.0564 6.43717 80.0564 6.84768C80.0564 7.26285 80.215 7.61855 80.5322 7.91477C80.8495 8.21099 81.2296 8.3591 81.6729 8.3591ZM83.1492 20.4924V9.74456H80.1685V20.4924H83.1492ZM89.4916 20.6674C90.07 20.6674 90.561 20.5717 90.9645 20.3805C91.3681 20.1892 91.6969 19.9478 91.9511 19.6563C92.2053 19.3647 92.4026 19.0696 92.5425 18.7711H92.6684V20.4924H95.6073V6.16194H92.6333V11.5499H92.5425C92.4118 11.2607 92.2217 10.9656 91.9722 10.6647C91.7226 10.3638 91.3961 10.1119 90.9925 9.90901C90.589 9.70608 90.0863 9.60462 89.4845 9.60462C88.6962 9.60462 87.972 9.80872 87.3119 10.2169C86.6518 10.6251 86.1236 11.2385 85.7271 12.0572C85.3304 12.8759 85.1322 13.901 85.1322 15.1325C85.1322 16.3314 85.3247 17.3425 85.7096 18.1658C86.0944 18.9892 86.6169 19.612 87.2768 20.0341C87.9369 20.4564 88.6753 20.6674 89.4916 20.6674ZM90.4363 18.2953C89.9464 18.2953 89.5348 18.1612 89.2012 17.8929C88.8676 17.6247 88.6134 17.2515 88.4384 16.7734C88.2636 16.2952 88.1762 15.7436 88.1762 15.1185C88.1762 14.4981 88.2625 13.9523 88.4351 13.4811C88.6077 13.01 88.8619 12.6414 89.1976 12.3756C89.5336 12.1097 89.9464 11.9767 90.4363 11.9767C90.9166 11.9767 91.3249 12.105 91.6607 12.3616C91.9966 12.6181 92.2532 12.982 92.4305 13.4532C92.6077 13.9243 92.6964 14.4794 92.6964 15.1185C92.6964 15.7576 92.6065 16.315 92.427 16.7909C92.2473 17.2667 91.9907 17.6364 91.6573 17.8999C91.3237 18.1635 90.9166 18.2953 90.4363 18.2953ZM102.946 20.7023C103.832 20.7023 104.615 20.5659 105.294 20.293C105.972 20.0201 106.527 19.6376 106.959 19.1455C107.391 18.6533 107.676 18.076 107.816 17.4136L105.059 17.2317C104.957 17.5023 104.807 17.7308 104.611 17.9174C104.415 18.104 104.18 18.244 103.905 18.3373C103.629 18.4306 103.326 18.4772 102.995 18.4772C102.496 18.4772 102.064 18.3723 101.7 18.1623C101.337 17.9524 101.056 17.6539 100.857 17.2667C100.659 16.8795 100.56 16.42 100.56 15.8882L100.56 15.8814L107.879 15.8812V15.0625C107.879 14.1482 107.751 13.3493 107.494 12.6659C107.238 11.9826 106.88 11.4146 106.42 10.9621C105.961 10.5096 105.424 10.1702 104.811 9.94399C104.197 9.71774 103.536 9.60462 102.827 9.60462C101.773 9.60462 100.855 9.83786 100.074 10.3043C99.2922 10.7708 98.6869 11.4216 98.2577 12.2566C97.8286 13.0916 97.614 14.0619 97.614 15.1675C97.614 16.3011 97.8286 17.2818 98.2577 18.1099C98.6869 18.9379 99.2993 19.577 100.095 20.027C100.89 20.4773 101.84 20.7023 102.946 20.7023ZM100.567 13.9641C100.593 13.6051 100.691 13.275 100.861 12.9738C101.057 12.6263 101.328 12.3487 101.676 12.1412C102.023 11.9336 102.423 11.8298 102.876 11.8298C103.31 11.8298 103.691 11.9242 104.02 12.1132C104.349 12.3021 104.607 12.5622 104.793 12.8934C104.98 13.2246 105.073 13.6048 105.073 14.0339L100.563 14.0341L100.567 13.9641ZM114.682 20.7023C115.769 20.7023 116.708 20.4704 117.498 20.0061C118.289 19.542 118.899 18.8935 119.328 18.0609C119.757 17.2282 119.972 16.2614 119.972 15.1605C119.972 14.0503 119.757 13.0788 119.328 12.2461C118.899 11.4134 118.289 10.765 117.498 10.3009C116.708 9.8367 115.769 9.60462 114.682 9.60462C113.595 9.60462 112.656 9.8367 111.865 10.3009C111.075 10.765 110.465 11.4134 110.036 12.2461C109.607 13.0788 109.392 14.0503 109.392 15.1605C109.392 16.2614 109.607 17.2282 110.036 18.0609C110.465 18.8935 111.075 19.542 111.865 20.0061C112.656 20.4704 113.595 20.7023 114.682 20.7023ZM114.696 18.3933C114.197 18.3933 113.778 18.2521 113.44 17.9699C113.102 17.6877 112.847 17.3017 112.677 16.8119C112.507 16.322 112.422 15.7646 112.422 15.1395C112.422 14.5144 112.507 13.957 112.677 13.4671C112.847 12.9773 113.102 12.5901 113.44 12.3056C113.778 12.021 114.197 11.8787 114.696 11.8787C115.19 11.8787 115.603 12.021 115.934 12.3056C116.266 12.5901 116.516 12.9773 116.687 13.4671C116.857 13.957 116.942 14.5144 116.942 15.1395C116.942 15.7646 116.857 16.322 116.687 16.8119C116.516 17.3017 116.266 17.6877 115.934 17.9699C115.603 18.2521 115.19 18.3933 114.696 18.3933Z" fill="white"/>
</g>
<defs>
<clipPath id="clip0_1356_2201">
<rect width="120" height="24.6305" fill="white"/>
</clipPath>
</defs>
</svg>
